<svg width="1797" height="216" viewBox="0 0 1797 216" fill="none" xmlns="http://www.w3.org/2000/svg">
<g clip-path="url(#clip0)">
<path d="M50.1163 0H0V210.37H50.1163V0Z" fill="#141820"/>
<path d="M232.525 210.37L149.428 72.8132H148.691L149.796 210.37H101.338V0H158.272L241 137.182H241.922L240.632 0H289.09V210.37H232.525Z" fill="#141820"/>
<path d="M522.72 54.7984C516.499 42.0032 507.333 30.9287 496.004 22.5198C484.537 14.372 471.658 8.51382 458.048 5.25511C443.922 1.8227 429.455 0.0590063 414.933 0H340.311V210.371H417.144C431.351 210.337 445.486 208.317 459.153 204.365C472.466 200.472 484.958 194.11 496.004 185.599C507.132 176.794 516.196 165.576 522.536 152.758C529.473 137.883 532.882 121.555 532.485 105.092C533.259 87.7707 529.909 70.5159 522.72 54.7984ZM475.368 133.992C471.799 141.336 466.631 147.755 460.259 152.758C453.662 157.548 446.216 160.989 438.333 162.891C429.893 165.014 421.231 166.086 412.538 166.082H388.954V42.9755H413.643C422.08 43.0153 430.486 44.022 438.702 45.9776C446.407 47.9728 453.705 51.3406 460.259 55.9243C466.708 60.8463 471.892 67.285 475.368 74.6906C482.985 93.5666 482.985 114.74 475.368 133.616V133.992Z" fill="#141820"/>
<path d="M622.032 0H571.916V210.37H622.032V0Z" fill="#141820"/>
<path d="M780.672 210.37H730.74L652.618 0H708.63L756.351 149.192H757.641L805.177 0H860.268L780.672 210.37Z" fill="#141820"/>
<path d="M940.601 0H890.485V210.37H940.601V0Z" fill="#141820"/>
<path d="M1174.42 54.7984C1168.13 41.9907 1158.9 30.9171 1147.52 22.5198C1136.11 14.3935 1123.29 8.53613 1109.74 5.25511C1095.56 1.82152 1081.03 0.0579035 1066.44 0H992.745V210.371H1069.76C1083.97 210.337 1098.1 208.317 1111.77 204.365C1125.08 200.472 1137.58 194.11 1148.62 185.599C1159.7 176.787 1168.7 165.567 1174.97 152.758C1182.06 137.929 1185.53 121.579 1185.1 105.092C1185.59 87.6935 1181.92 70.435 1174.42 54.7984ZM1127.06 133.992C1123.49 141.386 1118.25 147.816 1111.77 152.758C1105.26 157.581 1097.87 161.027 1090.03 162.891C1081.59 165.001 1072.93 166.073 1064.23 166.082H1040.65V42.9755H1065.34C1073.72 43.0134 1082.06 44.0202 1090.21 45.9776C1097.94 47.8978 1105.26 51.2715 1111.77 55.9243C1118.32 60.7841 1123.58 67.235 1127.06 74.6906C1134.43 93.6161 1134.43 114.69 1127.06 133.616V133.992Z" fill="#141820"/>
<path d="M1392.75 165.706C1388.6 175.856 1382.31 184.953 1374.33 192.354C1366.19 200.053 1356.6 205.99 1346.14 209.807C1322.25 218.142 1296.32 218.142 1272.44 209.807C1262.12 206.033 1252.71 200.086 1244.8 192.354C1237.15 184.859 1231.18 175.769 1227.3 165.706C1223.13 154.629 1221.07 142.849 1221.22 130.989V-0.375H1270.78V126.484C1270.73 132.007 1271.47 137.51 1272.99 142.812C1274.3 147.836 1276.55 152.553 1279.62 156.699C1282.71 160.914 1286.85 164.218 1291.6 166.27C1303.06 171.026 1315.89 171.026 1327.34 166.27C1332.12 164.171 1336.31 160.879 1339.51 156.699C1342.64 152.588 1344.9 147.859 1346.14 142.812C1347.58 137.498 1348.27 131.997 1348.17 126.484V-0.375H1398.1V130.989C1398.57 142.807 1396.76 154.603 1392.75 165.706Z" fill="#141820"/>
<path d="M1552.87 0H1504.41L1417.81 210.371H1471.98L1487.27 169.084H1567.05L1583.08 210.371H1638.36L1552.87 0ZM1501.46 128.362L1527.62 56.2989L1553.42 128.362H1501.46Z" fill="#141820"/>
<path d="M1667.1 210.37V0H1717.22V166.082H1797V210.37H1667.1Z" fill="#141820"/>
<path d="M1763.61 5.52461V1.69231H1743.33V5.52461H1751.32V27H1755.58V5.52461H1763.61ZM1794.02 27V1.69231H1788.99L1780.68 18.5038L1772.32 1.69231H1767.26V27H1771.28V8.09154L1779.27 24.3608H1782.05L1790.04 8.09154L1790.08 27H1794.02Z" fill="#141820"/>
</g>
<defs>
<clipPath id="clip0">
<rect width="1797" height="216" fill="white"/>
</clipPath>
</defs>
</svg>
