<svg width="1800" height="367" viewBox="0 0 1800 367" fill="none" xmlns="http://www.w3.org/2000/svg">
<g clip-path="url(#clip0)">
<path d="M1404.45 190.173C1404.6 99.5667 1476.6 25.1373 1564.62 25.2935C1564.44 135.402 1564.81 245.51 1564.62 355.619C1476.61 355.456 1404.3 280.779 1404.45 190.173Z" stroke="#141820" stroke-width="3" stroke-miterlimit="10"/>
<path d="M1434.56 190.609V190.681C1434.44 264.212 1493.12 324.84 1564.57 324.963C1564.64 280.181 1564.71 235.396 1564.79 190.609H1434.56Z" stroke="#141820" stroke-width="3" stroke-miterlimit="10"/>
<path d="M1799.03 190.602C1798.95 237.715 1761.47 276.42 1715.7 276.335C1715.8 219.072 1715.61 161.808 1715.7 104.545C1761.47 104.649 1799.1 143.484 1799.03 190.602Z" stroke="#141820" stroke-width="3" stroke-miterlimit="10"/>
<path d="M1783.18 190.277C1783.23 152.034 1752.85 120.578 1715.7 120.513C1715.66 143.796 1715.63 167.083 1715.6 190.375L1783.18 190.277Z" stroke="#141820" stroke-width="3" stroke-miterlimit="10"/>
<path d="M1783.17 190.277C1762.38 190.277 1749.01 190.31 1728.13 190.277C1722.12 190.277 1712.69 191.689 1707.72 185.377C1703.74 180.308 1698.17 144.772 1692.21 145.15C1684.37 145.651 1681.68 193.511 1673.37 192.913C1668.38 192.548 1668.83 175.194 1664.28 134.888C1660.73 103.4 1657.51 84.7824 1655.56 89.8125C1651.17 101.22 1645.6 271.722 1635.46 271.695C1626.52 271.695 1621.46 129.838 1612.16 129.877C1604.37 129.923 1605.09 229.49 1596.64 229.314C1592.38 229.223 1590.58 203.884 1588.22 190.85C1586.18 179.579 1585.57 169.226 1581.99 169.675C1578.42 170.124 1574.1 190.219 1563.75 190.271C1552.65 190.323 1496.75 190.486 1403.73 190.271" stroke="#141820" stroke-width="3" stroke-miterlimit="10"/>
<path d="M1193.96 267.785L1277.21 351.187H1020.73L1148.97 222.722L1171.63 245.419" stroke="#141820" stroke-width="3" stroke-miterlimit="10"/>
<path d="M1126.59 110.642L1148.99 88.1986L1171.37 110.616L1193.8 88.1531L1216.21 110.59L1193.79 133.04L1216.22 155.496L1193.81 177.94L1171.4 155.496L1171.38 155.522L1148.97 133.085L1148.98 133.072L1126.59 110.642Z" stroke="#141820" stroke-width="3" stroke-miterlimit="10"/>
<path d="M1104.18 133.06L1081.83 110.668L1104.23 88.2249L1126.62 110.655L1148.52 132.598L1148.54 132.584L1171.43 155.522L1149.02 177.966L1126.62 155.509L1126.61 155.522L1126.59 155.503L1104.19 177.94L1081.78 155.496L1104.18 133.06Z" stroke="#141820" stroke-width="3" stroke-miterlimit="10"/>
<path d="M1037.04 200.363L1014.67 177.953L1037.07 155.509L1059.44 177.914L1081.82 155.49L1104.23 177.933L1081.84 200.35L1081.85 200.357L1059.45 222.8L1037.05 245.244L1014.64 222.8L1037.04 200.363Z" stroke="#141820" stroke-width="3" stroke-miterlimit="10"/>
<path d="M1148.99 267.752L1149.02 267.713L1126.63 245.283L1149.04 222.839L1171.43 245.276L1193.8 222.865L1216.21 245.309L1193.8 267.752L1171.4 290.189L1148.99 312.632L1126.59 290.189L1148.99 267.752Z" stroke="#141820" stroke-width="3" stroke-miterlimit="10"/>
<path d="M1036.99 245.302L1059.4 222.859L1081.8 200.416L1104.2 177.972L1126.61 200.416L1104.2 222.859L1126.61 245.302L1104.2 267.739L1081.8 245.302L1059.4 267.746L1036.99 245.302Z" stroke="#141820" stroke-width="3" stroke-miterlimit="10"/>
<path d="M1238.6 267.752L1216.19 290.189L1193.79 267.752L1216.19 245.309L1238.6 222.865L1261 200.422L1283.41 222.865L1261 245.309L1283.41 267.752L1261 290.189L1238.6 267.752Z" stroke="#141820" stroke-width="3" stroke-miterlimit="10"/>
<path d="M1171.42 200.409L1193.82 177.966L1216.22 155.522L1238.62 177.966L1216.22 200.409L1238.62 222.846L1216.22 245.289L1193.82 222.846L1171.42 245.289L1149.01 222.846L1171.42 200.409Z" stroke="#141820" stroke-width="3" stroke-miterlimit="10"/>
<path d="M1238.59 177.979L1238.62 177.946L1216.19 155.477L1238.6 133.033L1261.88 156.42L1283.38 177.959L1283.4 177.94L1305.8 200.383L1283.4 222.826L1261.01 200.403L1261 200.422L1238.59 222.865L1216.19 200.422L1238.59 177.979Z" stroke="#141820" stroke-width="3" stroke-miterlimit="10"/>
<path d="M1126.59 200.409L1126.61 200.383L1104.19 177.933L1126.6 155.496L1149.02 177.953L1171.4 155.535L1193.8 177.979L1126.6 245.309L1104.19 222.865L1126.6 200.422L1126.59 200.409Z" stroke="#141820" stroke-width="3" stroke-miterlimit="10"/>
<path d="M1330.03 210.131C1330.03 115.028 1253.06 37.937 1158.13 37.937" stroke="#141820" stroke-width="3" stroke-miterlimit="10"/>
<path d="M85.8185 126.5L127.874 168.628L169.935 126.5H85.8185Z" stroke="#141820" stroke-width="3" stroke-miterlimit="10"/>
<path d="M107.262 84.8996L128.426 23.9141L148.784 65.5081L128.27 123.923L107.262 84.8996Z" stroke="#141820" stroke-width="3" stroke-miterlimit="10"/>
<path d="M128.387 0V66.7184" stroke="#141820" stroke-width="3" stroke-miterlimit="10"/>
<path d="M53.3386 126.767C53.3386 126.689 53.3386 126.611 53.3386 126.533L2.76733 126.331V126.825C2.76733 171.816 26.9779 211.582 62.9527 233.661L100.441 196.108C86.5509 190.618 74.6308 181.069 66.2305 168.703C57.8302 156.337 53.3382 141.725 53.3386 126.767V126.767Z" stroke="#141820" stroke-width="3" stroke-miterlimit="10"/>
<path d="M252.727 126.825H202.149C202.136 141.737 197.66 156.303 189.298 168.639C180.936 180.976 169.073 190.517 155.241 196.03L192.704 233.557C228.587 211.458 252.727 171.751 252.727 126.825Z" stroke="#141820" stroke-width="3" stroke-miterlimit="10"/>
<path d="M127.88 168.634L127.874 168.628L100.441 196.108" stroke="#141820" stroke-width="3" stroke-miterlimit="10"/>
<path d="M155.235 196.036L127.886 168.634" stroke="#141820" stroke-width="3" stroke-miterlimit="10"/>
<path d="M62.9591 233.667L62.9526 233.661L43.7634 252.883H43.7764L62.9591 233.667Z" stroke="#141820" stroke-width="3" stroke-miterlimit="10"/>
<path d="M192.755 233.661V233.667L211.945 252.889L192.755 233.661Z" stroke="#141820" stroke-width="3" stroke-miterlimit="10"/>
<path d="M100.447 196.114L100.441 196.108L62.9526 233.661L62.9591 233.667L100.447 196.114Z" stroke="#141820" stroke-width="3" stroke-miterlimit="10"/>
<path d="M127.887 168.628L127.88 168.635H127.887V168.628Z" stroke="#141820" stroke-width="3" stroke-miterlimit="10"/>
<path d="M127.88 168.634H127.886V251.478" stroke="#141820" stroke-width="3" stroke-miterlimit="10"/>
<path d="M86.4682 252.883V335.811C86.4679 335.92 86.4354 336.027 86.3747 336.117C86.314 336.208 86.2278 336.279 86.1271 336.321C86.0264 336.362 85.9156 336.373 85.8087 336.352C85.7017 336.331 85.6035 336.278 85.5262 336.201L86.4682 337.138L170.578 252.883H86.4682Z" stroke="#141820" stroke-width="3" stroke-miterlimit="10"/>
<path d="M211.984 252.883H170.617L212.672 295.011L254.727 252.883H211.984Z" stroke="#141820" stroke-width="3" stroke-miterlimit="10"/>
<path d="M128.543 295.03L69.0848 354.591H188.033L170.598 337.119L170.578 337.138L128.543 295.03Z" stroke="#141820" stroke-width="3" stroke-miterlimit="10"/>
<path d="M171.234 253.54C171.149 253.454 171.048 253.386 170.936 253.34C170.825 253.293 170.705 253.27 170.585 253.27C170.464 253.27 170.344 253.293 170.233 253.34C170.121 253.386 170.02 253.454 169.935 253.54L128.53 295.011L170.565 337.119L212.601 295.011L171.234 253.54Z" stroke="#141820" stroke-width="3" stroke-miterlimit="10"/>
<path d="M128.555 295.01L128.537 295.028L170.575 337.139L170.594 337.121L128.555 295.01Z" stroke="#141820" stroke-width="3" stroke-miterlimit="10"/>
<path d="M85.5262 336.201L2.35156 252.883L85.5262 336.201Z" stroke="#141820" stroke-width="3" stroke-miterlimit="10"/>
<path d="M86.4682 335.811V252.883H2.35156L85.5002 336.175C85.5742 336.26 85.6722 336.32 85.7813 336.348C85.8903 336.375 86.005 336.369 86.1103 336.329C86.2155 336.289 86.3061 336.219 86.3701 336.126C86.434 336.033 86.4682 335.924 86.4682 335.811V335.811Z" stroke="#141820" stroke-width="3" stroke-miterlimit="10"/>
<path d="M693.622 133.521C693.72 121.88 696.461 91.6605 721.282 69.3734C742.784 50.0665 770.074 48.303 780.318 48.329C807.744 48.0102 830.506 63.5755 835.69 68.2541" stroke="#141820" stroke-width="3" stroke-miterlimit="10"/>
<path d="M840.25 302.279L787.314 355.307L734.378 302.279L787.314 249.252" stroke="#141820" stroke-width="3" stroke-miterlimit="10"/>
<path d="M733.664 196.388V92.3699" stroke="#141820" stroke-width="3" stroke-miterlimit="10"/>
<path d="M944.751 197.8L840.042 302.527V217.067" stroke="#141820" stroke-width="3" stroke-miterlimit="10"/>
<path d="M881.694 99.8465C866.286 55.9294 826.095 24.6492 779.402 24.7468C719.639 24.8704 672.069 76.5702 672.186 139.976C672.186 140.399 672.186 146.77 672.186 155.75" stroke="#141820" stroke-width="3" stroke-miterlimit="10"/>
<path d="M734.385 302.286L633.749 195.483L734.534 91.1791C746.467 78.3143 762.467 71.202 779.486 71.1694H779.623C797.513 71.1694 813.753 78.8219 825.524 91.1791" stroke="#141820" stroke-width="3" stroke-miterlimit="10"/>
<path d="M828.024 208.478L734.385 302.286" stroke="#141820" stroke-width="3" stroke-miterlimit="10"/>
<path d="M635.178 196.7H734.437" stroke="#141820" stroke-width="3" stroke-miterlimit="10"/>
<path d="M840.055 301.772C840.055 301.832 840.038 301.892 840.005 301.943C839.972 301.993 839.925 302.033 839.869 302.057C839.813 302.08 839.752 302.087 839.692 302.076C839.633 302.064 839.578 302.036 839.535 301.993" stroke="#141820" stroke-width="3" stroke-miterlimit="10"/>
<path d="M839.815 302.481L733.073 196.563" stroke="#141820" stroke-width="3" stroke-miterlimit="10"/>
<path d="M854.872 188.494L892.172 248.79C892.206 248.838 892.222 248.896 892.217 248.954C892.212 249.013 892.187 249.067 892.146 249.109C892.104 249.15 892.05 249.175 891.992 249.18C891.934 249.185 891.876 249.169 891.828 249.135L831.76 211.738C829.199 210.144 827.042 207.977 825.458 205.407L790.237 148.078C790.15 147.93 790.114 147.757 790.136 147.587C790.157 147.416 790.235 147.258 790.356 147.136C790.477 147.015 790.636 146.937 790.806 146.916C790.976 146.894 791.148 146.93 791.296 147.017L848.506 182.156C851.094 183.741 853.274 185.912 854.872 188.494V188.494Z" stroke="#141820" stroke-width="3" stroke-miterlimit="10"/>
<path d="M856.983 197.44C857.24 188.035 849.916 180.203 840.624 179.948C831.332 179.693 823.591 187.111 823.333 196.516C823.076 205.921 830.4 213.752 839.692 214.007C848.984 214.262 856.725 206.845 856.983 197.44Z" stroke="#141820" stroke-width="3" stroke-miterlimit="10"/>
<path d="M739.205 162.459L749.235 165.758" stroke="#141820" stroke-width="3" stroke-miterlimit="10"/>
<path d="M754.613 132.864L763.052 139.254" stroke="#141820" stroke-width="3" stroke-miterlimit="10"/>
<path d="M778.135 109.601L784.228 118.177" stroke="#141820" stroke-width="3" stroke-miterlimit="10"/>
<path d="M807.621 94.6929L810.895 104.747" stroke="#141820" stroke-width="3" stroke-miterlimit="10"/>
<path d="M840.315 89.5391L840.341 116.251" stroke="#141820" stroke-width="3" stroke-miterlimit="10"/>
<path d="M873.055 94.6343L869.833 104.616" stroke="#141820" stroke-width="3" stroke-miterlimit="10"/>
<path d="M902.624 109.529L896.473 118.119" stroke="#141820" stroke-width="3" stroke-miterlimit="10"/>
<path d="M926.257 132.844L917.754 139.183" stroke="#141820" stroke-width="3" stroke-miterlimit="10"/>
<path d="M941.594 162.186L931.369 165.751" stroke="#141820" stroke-width="3" stroke-miterlimit="10"/>
<path d="M859.952 196.557H944.777C944.777 168.512 933.655 141.616 913.859 121.786C894.063 101.955 867.213 90.8147 839.217 90.8147C811.221 90.8147 784.371 101.955 764.575 121.786C744.779 141.616 733.657 168.512 733.657 196.557H819.489" stroke="#141820" stroke-width="3" stroke-miterlimit="10"/>
<path d="M733.845 92.5391L765.221 121.919" stroke="#141820" stroke-width="3" stroke-miterlimit="10"/>
<path d="M409.942 93.3719C409.942 93.3198 409.942 93.2613 409.942 93.2092C409.827 89.2308 408.167 85.4542 405.317 82.6811C402.467 79.9081 398.65 78.3569 394.677 78.3569C390.704 78.3569 386.887 79.9081 384.037 82.6811C381.186 85.4542 379.527 89.2308 379.411 93.2092C379.408 93.2634 379.408 93.3177 379.411 93.3719V93.3719V226.386" stroke="#141820" stroke-width="3" stroke-miterlimit="10"/>
<path d="M440.506 172.896V55.5129C440.506 55.4543 440.506 55.4023 440.506 55.3437C440.566 53.298 440.215 51.2611 439.475 49.3537C438.734 47.4462 437.619 45.7069 436.196 44.2388C434.772 42.7707 433.069 41.6037 431.188 40.8067C429.306 40.0098 427.284 39.5991 425.241 39.5991C423.198 39.5991 421.175 40.0098 419.293 40.8067C417.412 41.6037 415.709 42.7707 414.285 44.2388C412.862 45.7069 411.747 47.4462 411.007 49.3537C410.266 51.2611 409.915 53.298 409.975 55.3437C409.975 55.4023 409.975 55.4543 409.975 55.5129V179.306" stroke="#141820" stroke-width="3" stroke-miterlimit="10"/>
<path d="M471.083 172.708V39.9608C471.083 39.9087 471.083 39.8502 471.083 39.7981C470.967 35.8196 469.308 32.0431 466.457 29.27C463.607 26.497 459.79 24.9458 455.817 24.9458C451.844 24.9458 448.027 26.497 445.177 29.27C442.327 32.0431 440.667 35.8196 440.552 39.7981C440.552 39.8502 440.552 39.9087 440.552 39.9608V172.33" stroke="#141820" stroke-width="3" stroke-miterlimit="10"/>
<path d="M501.555 172.708V55.7602C501.555 55.7017 501.555 55.6496 501.555 55.591C501.615 53.5453 501.264 51.5084 500.524 49.601C499.783 47.6935 498.669 45.9542 497.245 44.4861C495.822 43.018 494.119 41.851 492.237 41.054C490.355 40.2571 488.333 39.8464 486.29 39.8464C484.247 39.8464 482.224 40.2571 480.343 41.054C478.461 41.851 476.758 43.018 475.334 44.4861C473.911 45.9542 472.796 47.6935 472.056 49.601C471.315 51.5084 470.965 53.5453 471.024 55.591C471.024 55.6496 471.024 55.7017 471.024 55.7602V172.708" stroke="#141820" stroke-width="3" stroke-miterlimit="10"/>
<path d="M531.963 173.053L531.872 253.241C531.872 254.133 531.872 255.011 531.872 255.89" stroke="#141820" stroke-width="3" stroke-miterlimit="10"/>
<path d="M379.1 255.154V231.325C379.1 223.67 380.605 216.09 383.531 209.018C386.456 201.946 390.744 195.52 396.149 190.109C401.554 184.697 407.971 180.406 415.032 177.479C422.094 174.553 429.662 173.048 437.304 173.053H501.802" stroke="#141820" stroke-width="3" stroke-miterlimit="10"/>
<path d="M501.997 224.609V134.81C502.426 125.381 510.039 118.542 518.374 119.414C525.623 120.201 531.69 126.708 531.963 134.81V173.254" stroke="#141820" stroke-width="3" stroke-miterlimit="10"/>
<path fill-rule="evenodd" clip-rule="evenodd" d="M516.678 149.906C520.723 149.888 524.596 148.27 527.456 145.405C530.316 142.54 531.931 138.66 531.95 134.608C531.97 132.616 531.597 130.639 530.853 128.792C530.109 126.944 529.009 125.262 527.615 123.841C526.221 122.42 524.561 121.288 522.73 120.51C520.899 119.733 518.933 119.325 516.944 119.31C516.944 129.513 516.678 139.71 516.678 149.906Z" stroke="#141820" stroke-width="3" stroke-miterlimit="10"/>
<path d="M531.684 238.496C524.715 233.059 516.779 228.996 508.298 226.522C471.329 215.388 432.107 236.53 420.986 273.582C419.422 279.02 418.457 284.613 418.108 290.26C417.387 306.255 421.694 319.614 424.844 325.874" stroke="#141820" stroke-width="3" stroke-miterlimit="10"/>
<path d="M379.119 229.295C383.791 220.177 391.139 212.71 400.173 207.899C419.134 197.891 444.923 200.357 461.404 216.261C476.026 230.375 477.059 249.018 477.176 253.749C477.28 277.916 477.072 304.557 477.176 328.725" stroke="#141820" stroke-width="3" stroke-miterlimit="10"/>
<path d="M565.359 255.753C565.471 270.305 562.706 284.735 557.224 298.211C551.742 311.688 543.652 323.944 533.419 334.273C523.186 344.603 511.013 352.801 497.603 358.396C484.192 363.991 469.808 366.871 455.281 366.871C440.754 366.871 426.371 363.991 412.96 358.396C399.549 352.801 387.377 344.603 377.144 334.273C366.911 323.944 358.821 311.688 353.339 298.211C347.857 284.735 345.092 270.305 345.203 255.753H565.359Z" stroke="#141820" stroke-width="3" stroke-miterlimit="10"/>
<path d="M531.827 255.701C531.92 265.796 530.015 275.81 526.223 285.164C522.43 294.518 516.826 303.026 509.732 310.198C502.638 317.37 494.197 323.063 484.894 326.948C475.592 330.833 465.613 332.833 455.535 332.833C445.456 332.833 435.478 330.833 426.175 326.948C416.873 323.063 408.431 317.37 401.337 310.198C394.244 303.026 388.639 294.518 384.847 285.164C381.054 275.81 379.15 265.796 379.243 255.701H531.827Z" stroke="#141820" stroke-width="3" stroke-miterlimit="10"/>
</g>
<defs>
<clipPath id="clip0">
<rect width="1800" height="367" fill="white"/>
</clipPath>
</defs>
</svg>
