<svg width="60" height="60" viewBox="0 0 60 60" fill="none" xmlns="http://www.w3.org/2000/svg">
<path d="M60 0H0V60H60V0Z" fill="white"/>
<path d="M9.99304 10H20L14.9972 20.0056L9.99304 10Z" fill="#141820"/>
<path d="M29.9972 20.0056C32.7602 20.0056 35 17.7657 35 15.0028C35 12.2398 32.7602 10 29.9972 10C27.2343 10 24.9944 12.2398 24.9944 15.0028C24.9944 17.7657 27.2343 20.0056 29.9972 20.0056Z" fill="#141820"/>
<path d="M50 25.0098H39.993V50.025H50V25.0098Z" fill="#141820"/>
<path d="M35 25.0098H24.993V50.025H35V25.0098Z" fill="#141820"/>
<path d="M20 25.0098H9.99304V50.025H20V25.0098Z" fill="#141820"/>
<path d="M50 10H39.993V20.0069H50V10Z" fill="#141820"/>
</svg>
