<svg width="290" height="60" viewBox="0 0 290 60" fill="none" xmlns="http://www.w3.org/2000/svg">
<path d="M290 0H0V60H290V0Z" fill="#141820"/>
<path d="M22.3167 15.0445H15.0611V44.9278H22.3167V15.0445Z" fill="white"/>
<path d="M49.4778 44.9278L37.4611 25.3834H37.3333L37.5 44.9278H30.5V15.0445H38.7222L50.7056 34.5445H50.8278L50.6611 15.0445H57.6611V44.9278H49.4778Z" fill="white"/>
<path d="M91.4889 22.8112C90.58 20.9944 89.2459 19.4239 87.6 18.2333C85.9467 17.0718 84.0849 16.24 82.1167 15.7834C80.0718 15.2909 77.9756 15.0428 75.8722 15.0444H65.0778V44.9278H76.1889C78.2438 44.9273 80.2882 44.6356 82.2611 44.0612C84.2082 43.509 86.033 42.5928 87.6389 41.3611C89.2533 40.1074 90.5653 38.5069 91.4778 36.6778C92.4958 34.5667 92.9948 32.2429 92.9334 29.9C93.0221 27.4558 92.5269 25.0258 91.4889 22.8112ZM84.6334 34.0778C84.124 35.1471 83.3612 36.0759 82.4111 36.7833C81.4626 37.4703 80.3887 37.9648 79.2501 38.2389C78.0278 38.535 76.7742 38.6824 75.5167 38.6778H72.1001V21.2056H75.6834C76.8976 21.2047 78.1077 21.3464 79.2889 21.6278C80.4121 21.8917 81.4728 22.373 82.4111 23.0445C83.3595 23.7328 84.1229 24.6451 84.6334 25.7C85.7295 28.3851 85.7295 31.3927 84.6334 34.0778Z" fill="white"/>
<path d="M105.844 15.0445H98.5889V44.9278H105.844V15.0445Z" fill="white"/>
<path d="M128.506 44.9278H121.294L109.989 15.0445H118.089L125.006 36.2334H125.172L132.05 15.0445H140.022L128.506 44.9278Z" fill="white"/>
<path d="M152.25 15.0445H144.994V44.9278H152.25V15.0445Z" fill="white"/>
<path d="M187.344 22.8112C186.439 20.9921 185.104 19.4208 183.456 18.2333C181.803 17.0707 179.941 16.2388 177.972 15.7834C175.929 15.2909 173.835 15.0428 171.733 15.0444H160.933V44.9278H172.044C174.101 44.9273 176.147 44.6356 178.122 44.0612C180.069 43.5079 181.893 42.5918 183.5 41.3611C185.113 40.1059 186.425 38.5057 187.339 36.6778C188.354 34.5658 188.853 32.2427 188.794 29.9C188.881 27.4554 188.384 25.0253 187.344 22.8112ZM180.489 34.0778C179.981 35.1482 179.218 36.0774 178.267 36.7833C177.319 37.4713 176.245 37.9659 175.106 38.2389C173.883 38.5356 172.63 38.683 171.372 38.6778H167.956V21.2056H171.539C172.755 21.205 173.967 21.3467 175.15 21.6278C176.272 21.8908 177.331 22.3721 178.267 23.0445C179.217 23.7311 179.98 24.6439 180.489 25.7C181.585 28.3851 181.585 31.3927 180.489 34.0778Z" fill="white"/>
<path d="M220.011 38.5723C219.433 40.0126 218.548 41.3094 217.417 42.3722C216.24 43.4602 214.857 44.3008 213.35 44.8444C209.911 46.0224 206.178 46.0224 202.739 44.8444C201.249 44.3029 199.885 43.4615 198.733 42.3722C197.628 41.3004 196.764 40.0049 196.2 38.5723C195.594 37.005 195.294 35.3359 195.317 33.6555V15.0444H202.489V33.0667C202.485 33.8518 202.591 34.6336 202.806 35.3889C203.005 36.0963 203.333 36.7611 203.772 37.35C204.23 37.9417 204.825 38.4127 205.506 38.7222C207.168 39.3964 209.027 39.3964 210.689 38.7222C211.374 38.4087 211.975 37.9386 212.444 37.35C212.895 36.7677 213.224 36.1007 213.411 35.3889C213.61 34.6309 213.709 33.8503 213.706 33.0667V15.0444H220.928V33.6555C220.948 35.3387 220.637 37.0095 220.011 38.5723Z" fill="white"/>
<path d="M243.617 15.0444H236.611L224.083 44.9278H231.933L234.122 39.0612H245.683L248 44.9278H256.017L243.617 15.0444ZM236.189 33.2778L239.989 23.0222L243.7 33.2778H236.189Z" fill="white"/>
<path d="M260.528 44.9278V15.0445H267.783V38.6389H279.344V44.9278H260.528Z" fill="white"/>
</svg>
